<?xml version="1.0" encoding="utf-8"?>
<!-- Generator: Adobe Illustrator 27.5.0, SVG Export Plug-In . SVG Version: 6.00 Build 0)  -->
<svg version="1.1" id="logo" xmlns="http://www.w3.org/2000/svg" xmlns:xlink="http://www.w3.org/1999/xlink" x="0px" y="0px"
	 viewBox="0 0 405.6 81.6" style="enable-background:new 0 0 405.6 81.6;" xml:space="preserve">
<style type="text/css">
	.st0{fill:#5CC4BE;}
	.st1{fill:#231F20;}
	.st2{fill:#FFFFFF;}
</style>
<path id="Path_1" class="st0" d="M77.1,81.6H14.9C6.7,81.6,0,75,0,66.8V14.9C0,6.7,6.7,0,14.9,0h62.3C85.4,0,92,6.7,92,14.9v51.9
	C92,75,85.3,81.6,77.1,81.6z"/>
<g id="Group_1" transform="translate(238.78 0.607)">
	<path id="Path_2" class="st1" d="M0,4.7L0,4.7C-0.1,2.2,1.9,0.1,4.5,0c0.1,0,0.1,0,0.2,0c2.5,0,4.6,2,4.6,4.5c0,0.1,0,0.1,0,0.2v0
		c0.1,2.6-2,4.7-4.5,4.7C2.2,9.5,0.1,7.4,0,4.9C0,4.8,0,4.8,0,4.7z M8.2,4.7L8.2,4.7c0.1-2-1.5-3.7-3.5-3.8c0,0-0.1,0-0.1,0
		c-2,0-3.6,1.6-3.5,3.6c0,0.1,0,0.1,0,0.2v0.1C1,6.7,2.5,8.3,4.5,8.4c2,0.1,3.6-1.4,3.7-3.4C8.2,4.9,8.2,4.8,8.2,4.7z"/>
	<path id="Path_3" class="st1" d="M11.5,0.7c0-0.3,0.2-0.5,0.5-0.5h2.9c2.1,0,3.4,1.1,3.4,2.9v0.1c0,2-1.6,3-3.6,3h-2.2v2.7
		c0,0.3-0.2,0.5-0.5,0.5c-0.3,0-0.5-0.2-0.5-0.5L11.5,0.7L11.5,0.7z M14.8,5.1c1.5,0,2.5-0.8,2.5-2v0c0-1.3-1-2-2.4-2h-2.3v4
		L14.8,5.1L14.8,5.1z"/>
	<path id="Path_4" class="st1" d="M19.2,7.8c0.3,0,0.6,0.2,0.6,0.6c0,0,0,0,0,0v0.3c0,0.3-0.3,0.6-0.6,0.6c-0.3,0-0.6-0.3-0.6-0.6
		V8.4C18.5,8.1,18.8,7.8,19.2,7.8C19.1,7.8,19.1,7.8,19.2,7.8z"/>
	<path id="Path_5" class="st1" d="M25.9,0.7c0-0.3,0.2-0.5,0.5-0.5h2.6c2.5-0.2,4.7,1.7,4.8,4.2c0,0.1,0,0.2,0,0.3v0.1
		c0,2.5-2,4.6-4.5,4.6c-0.1,0-0.2,0-0.3,0h-2.6c-0.3,0-0.5-0.2-0.5-0.5L25.9,0.7z M29.1,8.3C31,8.4,32.7,6.9,32.8,5
		c0-0.1,0-0.2,0-0.3v0c0-1.9-1.5-3.6-3.4-3.6c-0.1,0-0.2,0-0.3,0h-2.1v7.2L29.1,8.3L29.1,8.3z"/>
	<path id="Path_6" class="st1" d="M36.1,0.7c0-0.3,0.2-0.5,0.5-0.5H40c0.9,0,1.9,0.3,2.6,0.9c0.5,0.5,0.7,1.1,0.7,1.8v0.1
		c0,1.4-1,2.5-2.4,2.6l2.3,2.9c0.2,0.2,0.2,0.5,0,0.7c-0.1,0.1-0.2,0.2-0.4,0.2c-0.2,0-0.4-0.1-0.5-0.3l-2.6-3.3H37v3.1
		c0,0.3-0.2,0.5-0.5,0.5c-0.3,0-0.5-0.2-0.5-0.5L36.1,0.7L36.1,0.7z M39.9,4.8c1.4,0,2.3-0.7,2.3-1.9l0,0c0-1.1-0.9-1.8-2.3-1.8
		h-2.8v3.7L39.9,4.8L39.9,4.8z"/>
	<path id="Path_7" class="st1" d="M45.8,7.8c0.3,0,0.6,0.2,0.6,0.6c0,0,0,0,0,0v0.3c0,0.3-0.3,0.6-0.6,0.6c-0.3,0-0.6-0.3-0.6-0.6
		V8.4c0-0.3,0.2-0.6,0.5-0.6C45.7,7.8,45.8,7.8,45.8,7.8z"/>
</g>
<g id="Group_2" transform="translate(11.626 10.817)">
	<path id="Path_8" class="st2" d="M61.8,0.1c-1.2,0-2.4,0.3-3.5,1L34.8,14.3c-0.1,0.1-0.2,0.1-0.2,0.2l-0.2,0.2l-0.2-0.2
		c-0.1-0.1-0.2-0.1-0.2-0.2L10.6,1C9.5,0.4,8.3,0,7.1,0C3.2,0,0,3.2,0,7.1v47.5c0,3.2,2.6,5.9,5.9,5.9c1,0,2-0.3,2.9-0.8l9.2-5.4
		c2.5-1.5,4-4.2,4-7.1v-19c0-1.7-1.4-3.1-3.1-3.1h-0.2c-1.7,0.1-3,1.6-3,3.3v16.9c0,1.9-1,3.7-2.7,4.7l-3.4,2
		c-0.3,0.2-0.7,0.3-1.1,0.3c-0.6,0-1.1-0.2-1.6-0.6c-0.5-0.4-0.7-1-0.7-1.6V10.6c0-1.5,1.2-2.8,2.8-2.8c0,0,0,0,0,0
		c0.5,0,1,0.1,1.4,0.4l18,10.3c1.3,0.8,2.3,2,2.6,3.5v14.5c2-1.3,4.5-1.3,6.5,0V21.9c0.4-1.5,1.3-2.7,2.6-3.5l18-10.3
		c0.4-0.2,0.9-0.4,1.4-0.4c1.5,0,2.8,1.2,2.8,2.8c0,0,0,0,0,0v39.3c0,1.2-1,2.2-2.2,2.2c-0.4,0-0.8-0.1-1.1-0.3l-3.4-2
		c-1.7-1-2.7-2.7-2.7-4.7V28.2c0-1.7-1.3-3.1-3-3.3h-0.2c-1.7,0-3.1,1.4-3.1,3.1v19.1c0,2.9,1.6,5.6,4,7.1l9.2,5.4
		c0.9,0.5,1.9,0.8,2.9,0.8l0,0c1.5,0,3-0.6,4.1-1.7c1.1-1.1,1.8-2.6,1.8-4.2V7.1c0.1-3.8-2.9-7-6.7-7.1C61.9,0.1,61.9,0.1,61.8,0.1z
		"/>
	<path id="Path_9" class="st2" d="M34.4,35.4c-3.3,0-6,2.7-6,6s2.7,6,6,6c3.3,0,6-2.7,6-6v0C40.4,38.1,37.7,35.4,34.4,35.4z
		 M34.4,44.8c-1.9,0-3.4-1.5-3.4-3.4s1.5-3.4,3.4-3.4s3.4,1.5,3.4,3.4S36.3,44.8,34.4,44.8L34.4,44.8z"/>
	<circle id="Ellipse_1" class="st2" cx="34.4" cy="41.4" r="2.2"/>
</g>
<g id="Group_3" transform="translate(107.613 9.907)">
	<path id="Path_10" class="st1" d="M15.8,45.9c0,0.5-0.4,1-1,1l0,0h-1.3c-0.6,0-1-0.4-1.1-1V15.1c0-4-1.7-5.8-4.5-5.8
		c-3,0-4.5,1.9-4.5,5.8v30.8c0,0.5-0.5,1-1,1c0,0,0,0-0.1,0H1.1c-0.6,0-1-0.4-1.1-1v-38c0-0.7,0.6-1.4,1.3-1.4c0,0,0.1,0,0.1,0
		c0.5,0,0.9,0.2,1.3,0.6l0.1,0.1C3,7.5,3.3,7.6,3.6,7.6C4.2,7.5,4.7,7.2,5.3,7c1-0.5,2.2-0.7,3.3-0.8c1.5,0.1,2.9,0.5,4.1,1.3
		l0.4,0.3c0.4,0.3,0.8,0.5,1.3,0.6c0.4,0,0.8-0.2,1.2-0.5L16,7.5c1.4-0.9,3-1.3,4.6-1.3c3.7,0,7.7,2.3,7.7,8.9v30.8c0,0.5-0.4,1-1,1
		c0,0,0,0,0,0H26c-0.6,0-1-0.4-1.1-1V15.1c0-4-1.7-5.8-4.5-5.8c-3,0-4.5,1.9-4.5,5.8v30.8H15.8z"/>
	<path id="Path_11" class="st1" d="M38,37.6c0,4.4,1.7,6.6,4.9,6.6c3,0,4.9-1.9,4.9-6.6v-30c0-0.6,0.5-1,1.1-1h1.3c0.5,0,1,0.5,1,1
		v30.6c0,6.3-3.4,9.1-8.3,9.1c-5,0-8.3-2.9-8.3-9V7.6c0-0.6,0.5-1,1.1-1h1.2c0.6,0,1,0.4,1.1,1c0,0,0,0,0,0v30H38z"/>
	<path id="Path_12" class="st1" d="M60.7,18.6c0,3,0.7,4.4,3.8,6l3.7,1.8c3.9,1.9,5.7,4,5.7,8.5v3.4c0,5.8-3.1,8.9-8.2,8.9
		s-8.3-3.1-8.3-8.9v-2.8c0-0.6,0.5-1,1.1-1h1.2c0.6,0,1,0.4,1.1,1c0,0,0,0,0,0v2.1c0,4.5,1.7,6.6,4.9,6.6c3.2,0,4.9-2.2,4.9-6.6
		v-2.1c0-3.4-1.4-4.9-3.8-6.1l-3.8-1.9c-4-2-5.5-4.3-5.5-8.4v-4c0-6,3.2-8.9,8.2-8.9c5.4,0,8.3,3.6,8.3,8.9v2.9c0,0.6-0.5,1-1,1
		h-1.3c-0.6,0-1-0.5-1-1v-2.2c0-4.5-1.8-6.6-4.9-6.6c-3.2,0-4.9,2.2-4.9,6.6L60.7,18.6L60.7,18.6z"/>
	<path id="Path_13" class="st1" d="M94.2,6.6c0.5,0,1,0.4,1,0.9c0,0,0,0,0,0v1.1c0,0.5-0.4,1-1,1c0,0,0,0-0.1,0h-5.1
		c-0.5,0-1,0.4-1,0.9c0,0,0,0.1,0,0.1v35.2c0,0.6-0.5,1-1,1c0,0-0.1,0-0.1,0h-1.1c-0.5,0-1-0.4-1.1-0.9c0,0,0,0,0-0.1V10.7
		c0-0.5-0.4-1-0.9-1c0,0-0.1,0-0.1,0h-5c-0.6,0-1-0.4-1.1-1V7.6c0-0.5,0.5-1,1.1-1L94.2,6.6L94.2,6.6z"/>
	<path id="Path_14" class="st1" d="M115.8,45.9c0,0.6-0.5,1-1,1h-1.3c-0.6,0-1-0.5-1-1V30.6c0-0.6-0.4-1-1-1.1c0,0-0.1,0-0.1,0h-7.7
		c-0.6,0-1,0.5-1,1.1v15.3c0,0.6-0.5,1-1,1c0,0,0,0,0,0h-1.2c-0.6,0-1-0.5-1.1-1V15.2c0-6.3,3.7-8.9,8.3-8.9s8.3,2.6,8.3,8.9v30.7
		H115.8z M102.6,25.3c0,0.6,0.4,1,1,1.1h7.7c0.6,0,1-0.4,1.1-1c0,0,0,0,0-0.1v-9.4c0-4.4-1.7-6.6-4.9-6.6s-4.9,2.2-4.9,6.6
		L102.6,25.3L102.6,25.3z"/>
	<path id="Path_15" class="st1" d="M125.5,45.9c0,0.5-0.4,1-1,1c0,0-0.1,0-0.1,0h-1.2c-0.6,0-1-0.4-1.1-1V7.6c0-0.6,0.5-1,1.1-1
		h10.4c0.6,0,1,0.5,1,1v1.1c0,0.6-0.5,0.8-1,1h-7c-0.6,0-1,0.4-1,1c0,0,0,0.1,0,0.1v14.4c-0.1,0.6,0.3,1.1,0.9,1.1c0,0,0.1,0,0.1,0
		h6.8c0.5,0,1,0.4,1,1v1.1c0,0.5-0.4,1-0.9,1c0,0,0,0,0,0h-6.8c-0.6,0-1,0.4-1,1c0,0,0,0.1,0,0.1L125.5,45.9L125.5,45.9z"/>
	<path id="Path_16" class="st1" d="M156.1,45.9c0,0.6-0.5,1-1,1h-1.3c-0.6,0-1-0.5-1-1V30.6c0-0.6-0.4-1-1-1.1c0,0-0.1,0-0.1,0h-7.7
		c-0.6,0-1,0.5-1,1.1v15.3c0,0.6-0.5,1-1,1c0,0,0,0,0,0h-1.2c-0.6,0-1-0.5-1.1-1V15.2c0-6.3,3.7-8.9,8.3-8.9s8.3,2.6,8.3,8.9v30.7
		H156.1z M142.9,25.3c0,0.6,0.4,1,1,1.1h7.7c0.6,0,1-0.4,1.1-1c0,0,0,0,0-0.1v-9.4c0-4.4-1.7-6.6-4.9-6.6s-4.9,2.2-4.9,6.6
		L142.9,25.3z"/>
	<path id="Path_17" class="st1" d="M175.4,45c-1.2-1.4-2.2-3.3-2.2-6.7V15.2c0-5.6,2.9-8.9,8.3-8.9c4.9,0,8.3,3.1,8.3,8.9v2.9
		c0,0.5-0.4,1-0.9,1c0,0,0,0,0,0h-1.3c-0.6,0-1-0.4-1.1-1v-2.2c0-4.4-1.7-6.6-4.9-6.6c-3.1,0-4.9,2.2-4.9,6.1v22.2
		c0,4.1,1.4,6.6,4.9,6.6c3,0,5-1.6,5-6.5v-7.4c0-0.5-0.3-0.8-0.8-0.9c0,0-0.1,0-0.1,0h-2.4c-0.6,0-1-0.4-1.1-1c0,0,0,0,0,0v-1.1
		c0-0.5,0.4-1,1-1l0,0h5.8c0.5,0,1,0.4,1,1c0,0,0,0,0,0v18.4c0,0.7-0.6,1.4-1.3,1.4c0,0-0.1,0-0.1,0c-0.5,0-0.9-0.2-1.3-0.6
		l-0.1-0.1c-0.2-0.2-0.5-0.4-0.8-0.4c-0.6,0.1-1.2,0.3-1.7,0.6c-1.1,0.5-2.3,0.7-3.5,0.7C178.9,47.3,176.9,46.5,175.4,45z"/>
	<path id="Path_18" class="st1" d="M196.2,38.4V15.2c0-6.3,3.7-8.9,8.3-8.9s8.3,2.6,8.3,8.9v23.2c0,6-3.3,8.9-8.3,8.9
		S196.2,44.4,196.2,38.4z M201.4,2.5c0,0.6-0.4,1-0.9,1.1c0,0,0,0-0.1,0h-1.6c-0.6,0-1-0.4-1-1c0,0,0,0,0-0.1V1c0-0.5,0.4-1,1-1
		c0,0,0,0,0.1,0h1.6c0.5,0,1,0.4,1,1c0,0,0,0,0,0.1L201.4,2.5z M209.3,37.6V15.9c0-4.4-1.7-6.6-4.9-6.6s-4.9,2.2-4.9,6.6v21.7
		c0,4.4,1.7,6.6,4.9,6.6C207.6,44.1,209.3,42,209.3,37.6L209.3,37.6z M211.1,2.5c0,0.6-0.4,1-1,1.1c0,0-0.1,0-0.1,0h-1.5
		c-0.6,0-1-0.4-1.1-1c0,0,0,0,0-0.1V1c0-0.6,0.5-1,1-1c0,0,0,0,0,0h1.5c0.6,0,1,0.4,1.1,0.9c0,0,0,0,0,0.1V2.5z"/>
	<path id="Path_19" class="st1" d="M228.6,11.7c0.1-0.3,0.2-0.7,0.3-1c0-0.6-0.5-1-1.2-1h-8.3c-0.5,0-1-0.4-1-0.9c0,0,0-0.1,0-0.1
		V7.6c0-0.5,0.4-1,1-1c0,0,0,0,0.1,0h11.9c0.6,0,1.1,0.5,1.2,1.1c0,0,0,0,0,0v1.2c-0.1,1.4-0.4,2.8-0.9,4.1l-9.3,28.8
		c-0.1,0.3-0.1,0.7-0.2,1c0,0.5,0.4,0.9,0.9,1c0.1,0,0.1,0,0.2,0h8.2c0.5-0.1,1,0.3,1.1,0.9c0,0,0,0.1,0,0.1v1.1c0,0.6-0.4,1-1,1
		c0,0,0,0-0.1,0h-11.8c-0.6,0-1.1-0.5-1.2-1.1c0,0,0,0,0,0v-1.2c0.1-1.4,0.4-2.8,0.9-4.1L228.6,11.7z"/>
	<path id="Path_20" class="st1" d="M253.5,6.6c0.5,0,1,0.4,1,0.9c0,0,0,0,0,0v1.1c0,0.5-0.4,1-1,1c0,0,0,0-0.1,0h-5.1
		c-0.5,0-1,0.4-1,0.9c0,0,0,0.1,0,0.1v35.2c0,0.6-0.5,1-1,1c0,0-0.1,0-0.1,0h-1.1c-0.5,0-1-0.4-1.1-0.9c0,0,0,0,0-0.1V10.7
		c0-0.5-0.4-1-0.9-1c0,0-0.1,0-0.1,0h-5c-0.6,0-1-0.4-1.1-1V7.6c0-0.5,0.5-1,1.1-1L253.5,6.6L253.5,6.6z"/>
	<path id="Path_21" class="st1" d="M258.5,38.4V15.2c0-6.3,3.7-8.9,8.3-8.9s8.3,2.6,8.3,8.9v23.2c0,6-3.3,8.9-8.3,8.9
		S258.5,44.4,258.5,38.4z M271.7,37.6V15.9c0-4.4-1.7-6.6-4.9-6.6s-4.9,2.2-4.9,6.6v21.7c0,4.4,1.7,6.6,4.9,6.6
		C270,44.1,271.7,42,271.7,37.6z"/>
	<path id="Path_22" class="st1" d="M281.4,7.6c0-0.6,0.5-1,1.1-1h1.2c0.6,0,1,0.4,1.1,1c0,0,0,0,0,0v16.3c0,0.8,0.3,1.1,1,1.1h3.8
		c3.1,0,4.9-2,4.9-6.6V7.6c0-0.6,0.5-1,1.1-1h1.3c0.6,0,1,0.5,1,1v9.6c0,0.5,0.1,0.9,0.1,1.4c0,2.2-0.3,5.1-2.2,6.9l-0.4,0.4
		c-0.3,0.2-0.4,0.5-0.5,0.8c0,0.3,0.2,0.6,0.5,0.8l0.4,0.4c1.8,1.7,2.1,4.2,2.1,6.3v11.8c0,0.5-0.4,1-1,1c0,0,0,0,0,0h-1.3
		c-0.6,0-1-0.4-1.1-1V34.7c0-4.4-1.6-6.7-4.9-6.7h-3.9c-0.7,0-1,0.5-1,1.1v16.8c0,0.5-0.5,1-1,1c0,0,0,0-0.1,0h-1.2
		c-0.6,0-1-0.4-1.1-1L281.4,7.6z"/>
</g>
<g id="Group_4" transform="translate(108.573 63.587)">
	<path id="Path_23" class="st0" d="M0.1,2.9c0-0.4,0.3-0.8,0.8-0.8c0.4,0,0.8,0.3,0.8,0.8v3.6l4-4.1c0.2-0.3,0.7-0.4,1-0.2
		S7,3,6.8,3.3c0,0.1-0.1,0.1-0.1,0.1L4,6l2.9,3.6C7,9.8,7.1,10,7.1,10.2c0,0.4-0.3,0.7-0.8,0.8c-0.3,0-0.5-0.1-0.7-0.4L2.9,7.1
		L1.5,8.4v1.8c0,0.4-0.3,0.8-0.8,0.8C0.3,11,0,10.6,0,10.2L0.1,2.9L0.1,2.9z"/>
	<path id="Path_24" class="st0" d="M7.9,6.6L7.9,6.6c0-2.4,1.9-4.4,4.4-4.4c0,0,0.1,0,0.1,0c2.4-0.1,4.4,1.8,4.4,4.2
		c0,0.1,0,0.1,0,0.2l0,0c0,2.4-1.9,4.4-4.4,4.4c0,0-0.1,0-0.1,0C10,11,8,9.1,7.9,6.7C7.9,6.7,7.9,6.6,7.9,6.6z M15.3,6.6L15.3,6.6
		c0.1-1.6-1.2-3-2.9-3.1c0,0-0.1,0-0.1,0c-1.6,0-2.9,1.3-2.9,2.9c0,0,0,0.1,0,0.1l0,0c-0.1,1.6,1.2,3,2.8,3c0,0,0.1,0,0.1,0
		c1.6,0,2.9-1.3,2.9-2.9C15.3,6.7,15.3,6.6,15.3,6.6z"/>
	<path id="Path_25" class="st0" d="M18.7,2.9c0-0.4,0.3-0.8,0.8-0.8c0.4,0,0.8,0.3,0.8,0.8v6.5h3.9c0.4,0,0.7,0.3,0.7,0.7
		c0,0.4-0.3,0.7-0.7,0.7c0,0,0,0,0,0h-4.6c-0.4,0-0.7-0.3-0.8-0.8L18.7,2.9L18.7,2.9z"/>
	<path id="Path_26" class="st0" d="M25.4,6.6L25.4,6.6c0-2.4,1.9-4.4,4.4-4.4c0,0,0.1,0,0.1,0c2.4-0.1,4.4,1.8,4.4,4.2
		c0,0.1,0,0.1,0,0.2l0,0c0,2.4-1.9,4.4-4.4,4.4c0,0-0.1,0-0.1,0c-2.4,0.1-4.4-1.8-4.4-4.2C25.4,6.7,25.4,6.6,25.4,6.6z M32.8,6.6
		L32.8,6.6c0.1-1.6-1.2-3-2.9-3.1c0,0-0.1,0-0.1,0c-1.6,0-2.9,1.3-2.9,2.9c0,0,0,0.1,0,0.1l0,0c-0.1,1.6,1.2,3,2.8,3
		c0,0,0.1,0,0.1,0c1.6,0,2.9-1.3,2.9-2.9C32.8,6.7,32.8,6.6,32.8,6.6z"/>
	<path id="Path_27" class="st0" d="M36.1,3c0-0.4,0.3-0.7,0.8-0.8h3c0.9-0.1,1.8,0.3,2.5,0.9c0.5,0.5,0.7,1.2,0.7,1.9l0,0
		c0,1.2-0.8,2.3-1.9,2.6l1.6,2.1C43,9.8,43,10,43.1,10.2c0,0.4-0.3,0.7-0.7,0.7c-0.3,0-0.6-0.1-0.8-0.4l-2.1-2.6h-1.9v2.3
		c0,0.4-0.3,0.8-0.8,0.8c-0.4,0-0.8-0.3-0.8-0.8c0,0,0,0,0,0L36.1,3z M39.8,6.5c1.1,0,1.8-0.6,1.8-1.4l0,0c0-0.9-0.7-1.4-1.8-1.4
		h-2.2v2.9L39.8,6.5L39.8,6.5z"/>
	<path id="Path_28" class="st0" d="M45,10.1V3c0-0.4,0.3-0.7,0.8-0.8h5c0.4,0,0.7,0.3,0.7,0.7c0,0.4-0.3,0.6-0.6,0.7c0,0,0,0,0,0
		h-4.2v2.2h3.7c0.4,0,0.7,0.3,0.7,0.7c0,0,0,0,0,0c0,0.4-0.3,0.7-0.7,0.7h-3.7v2.3h4.3c0.4,0,0.7,0.3,0.7,0.7c0,0.4-0.3,0.7-0.7,0.7
		h-5.1C45.3,10.8,45,10.5,45,10.1C45,10.1,45,10.1,45,10.1z"/>
	<path id="Path_29" class="st0" d="M53.2,2.9c0-0.4,0.3-0.8,0.8-0.8c0.4,0,0.8,0.3,0.8,0.8c0,0,0,0,0,0v3.6l4-4.1
		c0.2-0.3,0.7-0.4,1-0.2c0.3,0.2,0.4,0.7,0.2,1c0,0.1-0.1,0.1-0.1,0.1L57.1,6L60,9.6c0.1,0.2,0.2,0.4,0.2,0.6c0,0.4-0.3,0.7-0.8,0.8
		c-0.3,0-0.5-0.1-0.7-0.4l-2.7-3.5l-1.4,1.4v1.8c0,0.4-0.3,0.8-0.8,0.8c-0.4,0-0.8-0.3-0.8-0.8L53.2,2.9L53.2,2.9z"/>
	<path id="Path_30" class="st0" d="M63.9,3.6h-2.1c-0.4,0-0.7-0.3-0.7-0.7c0,0,0,0,0,0c0-0.4,0.3-0.7,0.7-0.7h5.7
		c0.4,0,0.7,0.3,0.7,0.7c0,0.4-0.3,0.7-0.7,0.7c0,0,0,0,0,0h-2.1v6.5c0,0.4-0.3,0.8-0.8,0.8c-0.4,0-0.8-0.3-0.8-0.8c0,0,0,0,0,0
		L63.9,3.6L63.9,3.6z"/>
	<path id="Path_31" class="st0" d="M68.2,9.8l3.2-7.1c0.1-0.4,0.5-0.6,0.9-0.6h0.1c0.4,0,0.7,0.3,0.9,0.6l3.2,7.1
		c0.1,0.1,0.1,0.2,0.1,0.3c0,0.4-0.3,0.7-0.7,0.7c0,0,0,0,0,0c-0.3,0-0.6-0.2-0.8-0.5l-0.7-1.6h-4.1l-0.7,1.7
		c-0.1,0.3-0.4,0.5-0.7,0.5c-0.4,0-0.7-0.3-0.7-0.7c0,0,0,0,0,0C68.1,10,68.2,9.9,68.2,9.8z M73.8,7.4L72.3,4l-1.5,3.4H73.8z"/>
	<path id="Path_32" class="st0" d="M78.1,2.9c0-0.4,0.3-0.8,0.8-0.8c0.4,0,0.8,0.3,0.8,0.8c0,0,0,0,0,0v6.5h3.9
		c0.4,0,0.7,0.3,0.7,0.7c0,0.4-0.3,0.7-0.7,0.7c0,0,0,0,0,0H79c-0.4,0-0.7-0.3-0.8-0.8L78.1,2.9L78.1,2.9z"/>
	<path id="Path_33" class="st0" d="M89,6.6L89,6.6c-0.1-2.4,1.8-4.4,4.2-4.4c0.1,0,0.1,0,0.2,0c1.1,0,2.1,0.3,2.9,1
		c0.2,0.1,0.3,0.4,0.3,0.6c0,0.4-0.3,0.7-0.8,0.8c-0.2,0-0.3,0-0.5-0.2c-0.6-0.5-1.3-0.7-2-0.8c-1.6,0-2.9,1.4-2.8,3c0,0,0,0,0,0.1
		l0,0c-0.1,1.6,1.1,2.9,2.7,3c0,0,0.1,0,0.1,0c0.8,0,1.5-0.3,2.1-0.8c0.1-0.1,0.3-0.2,0.5-0.2c0.4,0,0.7,0.3,0.7,0.7
		c0,0.2-0.1,0.4-0.3,0.5c-0.8,0.8-1.9,1.2-3.1,1.2C90.9,11,89,9,89,6.6z"/>
	<path id="Path_34" class="st0" d="M98.4,10.1V3c0-0.4,0.3-0.7,0.8-0.8h5c0.4,0,0.7,0.3,0.7,0.7c0,0.4-0.3,0.6-0.6,0.7c0,0,0,0,0,0
		h-4.2v2.2h3.7c0.4,0,0.7,0.3,0.7,0.7c0,0,0,0,0,0c0,0.4-0.3,0.7-0.7,0.7h-3.7v2.3h4.3c0.4,0,0.7,0.3,0.7,0.7c0,0.4-0.3,0.7-0.7,0.7
		h-5.1C98.8,10.8,98.4,10.5,98.4,10.1C98.4,10.1,98.4,10.1,98.4,10.1z"/>
	<path id="Path_35" class="st0" d="M106.6,3c0-0.4,0.3-0.7,0.8-0.8h3c0.9-0.1,1.8,0.3,2.5,0.9c0.5,0.5,0.7,1.2,0.7,1.9l0,0
		c0,1.2-0.8,2.3-1.9,2.6l1.6,2.1c0.1,0.2,0.2,0.3,0.3,0.6c0,0.4-0.3,0.7-0.7,0.7c-0.3,0-0.6-0.1-0.8-0.4L110,7.8h-1.9v2.3
		c0,0.4-0.3,0.8-0.8,0.8c-0.4,0-0.8-0.3-0.8-0.8L106.6,3z M110.3,6.5c1.1,0,1.8-0.6,1.8-1.4l0,0c0-0.9-0.7-1.4-1.8-1.4h-2.2v2.9
		L110.3,6.5L110.3,6.5z"/>
	<path id="Path_36" class="st0" d="M115.4,3c0-0.4,0.3-0.7,0.8-0.8h3c0.9-0.1,1.8,0.3,2.5,0.9c0.5,0.5,0.7,1.2,0.7,1.9l0,0
		c0,1.2-0.8,2.3-1.9,2.6l1.6,2.1c0.1,0.2,0.2,0.3,0.3,0.6c0,0.4-0.3,0.7-0.7,0.7c-0.3,0-0.6-0.1-0.8-0.4l-2.1-2.6h-1.9v2.3
		c0,0.4-0.3,0.8-0.8,0.8c-0.4,0-0.8-0.3-0.8-0.8c0,0,0,0,0,0L115.4,3z M119.1,6.5c1.1,0,1.8-0.6,1.8-1.4l0,0c0-0.9-0.7-1.4-1.8-1.4
		H117v2.9L119.1,6.5L119.1,6.5z"/>
	<path id="Path_37" class="st0" d="M123.8,9.8l3.2-7.1c0.1-0.4,0.5-0.6,0.9-0.6h0.1c0.4,0,0.7,0.3,0.9,0.6l3.2,7.1
		c0.1,0.1,0.1,0.2,0.1,0.3c0,0.4-0.3,0.7-0.7,0.7c0,0,0,0,0,0c-0.3,0-0.6-0.2-0.8-0.5L130,8.7h-4.1l-0.7,1.7
		c-0.1,0.3-0.4,0.5-0.7,0.5c-0.4,0-0.7-0.3-0.7-0.7c0,0,0,0,0,0C123.7,10,123.7,9.9,123.8,9.8z M129.3,7.4L127.8,4l-1.5,3.4H129.3z"
		/>
	<path id="Path_38" class="st0" d="M133.7,2.9c0-0.4,0.3-0.8,0.8-0.8c0.4,0,0.8,0.3,0.8,0.8c0,0,0,0,0,0v2.9h4.1V2.9
		c0-0.4,0.3-0.8,0.8-0.8c0.4,0,0.8,0.3,0.8,0.8v7.2c0,0.4-0.3,0.8-0.8,0.8c-0.4,0-0.8-0.3-0.8-0.8V7.2h-4.1v2.9
		c0,0.4-0.3,0.8-0.8,0.8c-0.4,0-0.8-0.3-0.8-0.8c0,0,0,0,0,0V2.9z"/>
	<path id="Path_39" class="st0" d="M144.7,0.9c0,0.4-0.4,0.8-0.9,0.8c-0.4,0-0.7-0.4-0.8-0.8V0.8c0-0.4,0.4-0.8,0.9-0.8
		C144.3,0,144.6,0.4,144.7,0.9L144.7,0.9z M143.1,2.9c0-0.4,0.3-0.8,0.8-0.8c0.4,0,0.8,0.3,0.8,0.8c0,0,0,0,0,0v7.2
		c0,0.4-0.3,0.8-0.8,0.8c-0.4,0-0.8-0.3-0.8-0.8c0,0,0,0,0,0V2.9z"/>
	<path id="Path_40" class="st0" d="M156.2,10.7l-0.9-0.9c-0.7,0.7-1.6,1.1-2.6,1.1c-1.4,0.2-2.6-0.8-2.8-2.2c0-0.1,0-0.1,0-0.2l0,0
		c0-1.1,0.8-2.1,1.8-2.4C151.3,5.6,151,5,151,4.3l0,0c0-1.2,1.1-2.2,2.3-2.2c0.1,0,0.1,0,0.2,0c1.2-0.1,2.2,0.8,2.3,1.9
		c0,0.1,0,0.1,0,0.2l0,0c-0.1,1.1-0.8,2-1.9,2.2l1.5,1.5c0.3-0.4,0.5-0.8,0.7-1.2c0.1-0.2,0.3-0.4,0.6-0.4c0.4,0,0.7,0.3,0.7,0.7
		c0,0.1,0,0.2-0.1,0.4c-0.3,0.5-0.6,1.1-0.9,1.5l1,1c0.2,0.1,0.2,0.3,0.3,0.5c0,0.4-0.3,0.6-0.6,0.7c0,0,0,0,0,0
		C156.6,11,156.4,10.9,156.2,10.7z M154.5,8.9L152.5,7c-0.8,0.4-1.2,0.9-1.2,1.4l0,0c0,0.7,0.6,1.3,1.4,1.3c0,0,0,0,0,0
		C153.4,9.7,154,9.4,154.5,8.9L154.5,8.9z M154.4,4.3L154.4,4.3c0-0.5-0.4-1-0.9-1c0,0-0.1,0-0.1,0c-0.5,0-1,0.4-1,0.9
		c0,0,0,0.1,0,0.1l0,0c0,0.5,0.3,1,0.7,1.3C154,5.3,154.4,4.9,154.4,4.3L154.4,4.3z"/>
	<path id="Path_41" class="st0" d="M162.7,3c0-0.4,0.3-0.7,0.8-0.8h2.6c2,0,3.2,1.1,3.2,2.9l0,0c0,1.9-1.5,2.9-3.4,2.9h-1.7v2.1
		c0,0.4-0.3,0.8-0.8,0.8c-0.4,0-0.8-0.3-0.8-0.8c0,0,0,0,0,0L162.7,3L162.7,3z M165.9,6.7c1.1,0,1.9-0.7,1.9-1.5l0,0
		c0-1-0.7-1.5-1.9-1.5h-1.8v3.1L165.9,6.7L165.9,6.7z"/>
	<path id="Path_42" class="st0" d="M170.8,3c0-0.4,0.3-0.7,0.8-0.8h3c0.9-0.1,1.8,0.3,2.5,0.9c0.5,0.5,0.7,1.2,0.7,1.9l0,0
		c0,1.2-0.8,2.3-1.9,2.6l1.6,2.1c0.1,0.2,0.2,0.3,0.3,0.6c0,0.4-0.3,0.7-0.7,0.7c-0.3,0-0.6-0.1-0.8-0.4l-2.1-2.6h-1.9v2.3
		c0,0.4-0.3,0.8-0.8,0.8c-0.4,0-0.8-0.3-0.8-0.8c0,0,0,0,0,0L170.8,3L170.8,3z M174.6,6.5c1.1,0,1.8-0.6,1.8-1.4l0,0
		c0-0.9-0.7-1.4-1.8-1.4h-2.2v2.9L174.6,6.5L174.6,6.5z"/>
	<path id="Path_43" class="st0" d="M179.3,6.6L179.3,6.6c0-2.4,1.9-4.4,4.4-4.4c0,0,0.1,0,0.1,0c2.4-0.1,4.4,1.8,4.4,4.2
		c0,0.1,0,0.1,0,0.2l0,0c0,2.4-1.9,4.4-4.4,4.4c0,0-0.1,0-0.1,0c-2.4,0.1-4.4-1.8-4.4-4.2C179.3,6.7,179.3,6.6,179.3,6.6z
		 M186.7,6.6L186.7,6.6c0.1-1.6-1.2-3-2.9-3.1c0,0-0.1,0-0.1,0c-1.6,0-2.9,1.3-2.9,2.9c0,0,0,0.1,0,0.1l0,0c-0.1,1.6,1.2,3,2.8,3
		c0,0,0.1,0,0.1,0c1.6,0,2.9-1.3,2.9-2.9C186.7,6.7,186.7,6.6,186.7,6.6L186.7,6.6z"/>
	<path id="Path_44" class="st0" d="M190.1,2.9c0-0.4,0.3-0.8,0.8-0.8c0.4,0,0.8,0.3,0.8,0.8c0,0,0,0,0,0v3.6l4-4.1
		c0.2-0.3,0.7-0.4,1-0.2c0.3,0.2,0.4,0.7,0.2,1c0,0.1-0.1,0.1-0.1,0.1L194,6l2.9,3.6c0.1,0.2,0.2,0.4,0.2,0.6c0,0.4-0.3,0.7-0.8,0.8
		c-0.3,0-0.5-0.1-0.7-0.4L193,7.1l-1.4,1.4v1.8c0,0.4-0.3,0.8-0.8,0.8c-0.4,0-0.8-0.3-0.8-0.8L190.1,2.9L190.1,2.9z"/>
	<path id="Path_45" class="st0" d="M200.8,3.6h-2.1c-0.4,0-0.7-0.3-0.7-0.7c0,0,0,0,0,0c0-0.4,0.3-0.7,0.7-0.7h5.7
		c0.4,0,0.7,0.3,0.7,0.7c0,0.4-0.3,0.7-0.7,0.7c0,0,0,0,0,0h-2.1v6.5c0,0.4-0.3,0.8-0.8,0.8c-0.4,0-0.8-0.3-0.8-0.8c0,0,0,0,0,0
		L200.8,3.6z"/>
	<path id="Path_46" class="st0" d="M205.7,6.6L205.7,6.6c0-2.4,1.9-4.4,4.4-4.4c0,0,0.1,0,0.1,0c2.4-0.1,4.4,1.8,4.4,4.2
		c0,0.1,0,0.1,0,0.2l0,0c0,2.5-2,4.5-4.5,4.4C207.7,10.9,205.8,9,205.7,6.6L205.7,6.6z M213.1,6.6L213.1,6.6c0.1-1.6-1.2-3-2.9-3.1
		c0,0-0.1,0-0.1,0c-1.6,0-2.9,1.3-2.9,2.9c0,0,0,0.1,0,0.1l0,0c-0.1,1.6,1.2,3,2.8,3c0,0,0.1,0,0.1,0c1.6,0,2.9-1.3,2.9-2.9
		C213.1,6.7,213.1,6.6,213.1,6.6z"/>
	<path id="Path_47" class="st0" d="M216.5,2.9c0-0.4,0.3-0.8,0.8-0.8c0.4,0,0.8,0.3,0.8,0.8c0,0,0,0,0,0v6.5h3.9
		c0.4,0,0.7,0.3,0.7,0.7c0,0.4-0.3,0.7-0.7,0.7c0,0,0,0,0,0h-4.6c-0.4,0-0.7-0.3-0.8-0.8L216.5,2.9L216.5,2.9z"/>
	<path id="Path_48" class="st0" d="M223.2,6.6L223.2,6.6c0-2.4,1.9-4.4,4.4-4.4c0,0,0.1,0,0.1,0c2.4-0.1,4.4,1.8,4.4,4.2
		c0,0.1,0,0.1,0,0.2l0,0c0,2.4-1.9,4.4-4.4,4.4c0,0-0.1,0-0.1,0c-2.4,0.1-4.4-1.8-4.4-4.2C223.2,6.7,223.2,6.6,223.2,6.6z
		 M230.6,6.6L230.6,6.6c0.1-1.6-1.2-3-2.9-3.1c0,0-0.1,0-0.1,0c-1.6,0-2.9,1.3-2.9,2.9c0,0,0,0.1,0,0.1l0,0c-0.1,1.6,1.2,3,2.8,3
		c1.6,0.1,3-1.2,3-2.8C230.6,6.7,230.6,6.6,230.6,6.6L230.6,6.6z"/>
	<path id="Path_49" class="st0" d="M233.2,10c-0.2-0.1-0.3-0.3-0.3-0.6c0-0.4,0.3-0.7,0.7-0.7c0,0,0,0,0,0c0.2,0,0.3,0,0.5,0.2
		c0.4,0.4,0.9,0.7,1.4,0.7c0.8,0,1.4-0.6,1.4-1.7V3c0-0.4,0.3-0.8,0.8-0.8c0.4,0,0.8,0.3,0.8,0.8c0,0,0,0,0,0v5
		c0,0.8-0.2,1.7-0.8,2.3c-0.6,0.5-1.3,0.8-2.1,0.8C234.6,10.9,233.8,10.6,233.2,10z"/>
	<path id="Path_50" class="st0" d="M242.1,0.9c0,0.4-0.4,0.8-0.9,0.8c-0.4,0-0.7-0.4-0.8-0.8V0.8c0-0.4,0.4-0.8,0.9-0.8
		C241.8,0,242.1,0.4,242.1,0.9L242.1,0.9z M240.5,2.9c0-0.4,0.3-0.8,0.8-0.8c0.4,0,0.8,0.3,0.8,0.8c0,0,0,0,0,0v7.2
		c0,0.4-0.3,0.8-0.8,0.8c-0.4,0-0.8-0.3-0.8-0.8c0,0,0,0,0,0V2.9z"/>
	<path id="Path_51" class="st0" d="M247.9,7.2V2.9c0-0.4,0.3-0.8,0.8-0.8c0.4,0,0.8,0.3,0.8,0.8c0,0,0,0,0,0v4.2
		c0,1.6,0.8,2.4,2.2,2.4c1.1,0.1,2.1-0.8,2.2-2c0-0.1,0-0.3,0-0.4V2.9c0-0.4,0.3-0.8,0.8-0.8c0.4,0,0.8,0.3,0.8,0.8v4.1
		c0,2.6-1.5,3.8-3.7,3.8c-1.9,0.2-3.5-1.2-3.7-3C247.8,7.7,247.8,7.4,247.9,7.2z"/>
	<path id="Path_52" class="st0" d="M256.8,10.2L256.8,10.2c0-0.3,0.1-0.6,0.3-0.8l4.8-5.8h-4.3c-0.4,0-0.7-0.3-0.7-0.7
		c0-0.4,0.3-0.7,0.7-0.7c0,0,0,0,0,0h5.6c0.4,0,0.7,0.3,0.7,0.7V3c0,0.3-0.1,0.5-0.3,0.7l-4.9,5.8h4.4c0.4,0,0.7,0.3,0.7,0.7
		c0,0.4-0.3,0.7-0.7,0.7h-5.8C257.1,10.8,256.8,10.5,256.8,10.2z"/>
	<path id="Path_53" class="st0" d="M265.7,3c0-0.4,0.3-0.7,0.8-0.8h0.2c0.3,0,0.6,0.1,0.7,0.4l2.6,4l2.6-4.1
		c0.1-0.3,0.4-0.4,0.7-0.4h0.2c0.4,0,0.7,0.3,0.8,0.8v7.2c0,0.4-0.3,0.8-0.8,0.8c-0.4,0-0.8-0.3-0.8-0.8c0,0,0,0,0,0V5l-2.1,3.1
		c-0.1,0.2-0.4,0.4-0.7,0.4c-0.3,0-0.5-0.2-0.6-0.4L267.2,5v5.1c0,0.4-0.3,0.7-0.8,0.8c-0.4,0-0.8-0.3-0.8-0.7c0,0,0,0,0,0L265.7,3z
		"/>
	<path id="Path_54" class="st0" d="M275.8,9.8l3.2-7.1c0.1-0.4,0.5-0.6,0.9-0.6h0c0.4,0,0.7,0.3,0.9,0.6l3.2,7.1
		c0.1,0.1,0.1,0.2,0.1,0.3c0,0.4-0.3,0.7-0.7,0.7c0,0,0,0,0,0c-0.3,0-0.6-0.2-0.7-0.5L282,8.7h-4.1l-0.7,1.7
		c-0.1,0.3-0.4,0.5-0.7,0.5c-0.4,0-0.7-0.3-0.7-0.7c0,0,0,0,0,0C275.7,10.1,275.8,10,275.8,9.8z M281.4,7.4L279.9,4l-1.5,3.4H281.4z
		"/>
	<path id="Path_55" class="st0" d="M285.8,3c0-0.4,0.3-0.7,0.8-0.8h0.2c0.3,0,0.6,0.2,0.8,0.5l4.3,5.6V3c0-0.4,0.3-0.8,0.8-0.8
		c0.4,0,0.8,0.3,0.8,0.8v7.2c0,0.4-0.3,0.8-0.7,0.8c0,0,0,0,0,0h-0.1c-0.3,0-0.6-0.2-0.8-0.5l-4.4-5.7v5.4c0,0.4-0.3,0.8-0.8,0.8
		c-0.4,0-0.8-0.3-0.8-0.8L285.8,3z"/>
	<path id="Path_56" class="st0" d="M295.5,2.9c0-0.4,0.3-0.8,0.8-0.8c0.4,0,0.8,0.3,0.8,0.8c0,0,0,0,0,0v7.2c0,0.4-0.3,0.8-0.8,0.8
		c-0.4,0-0.8-0.3-0.8-0.8c0,0,0,0,0,0V2.9z"/>
</g>
</svg>
